<?xml version="1.0" standalone="no"?>
<!DOCTYPE svg PUBLIC "-//W3C//DTD SVG 20010904//EN"
 "http://www.w3.org/TR/2001/REC-SVG-20010904/DTD/svg10.dtd">
<svg version="1.0" xmlns="http://www.w3.org/2000/svg"
 width="828.000000pt" height="828.000000pt" viewBox="0 0 828.000000 828.000000"
 preserveAspectRatio="xMidYMid meet">
<metadata>
Created by potrace 1.14, written by Peter Selinger 2001-2017
</metadata>
<g transform="translate(0.000000,828.000000) scale(0.100000,-0.100000)"
fill="#000000" stroke="none">
<path d="M1515 8273 c-753 -66 -1358 -627 -1491 -1383 -18 -100 -19 -220 -19
-2760 0 -2523 1 -2660 18 -2750 22 -115 60 -249 94 -332 221 -544 690 -922
1273 -1024 100 -18 220 -19 2760 -19 2523 0 2660 1 2750 18 115 22 249 60 332
94 544 221 922 690 1024 1273 18 100 19 220 19 2760 0 2523 -1 2660 -18 2750
-71 370 -229 667 -490 916 -236 227 -519 371 -867 441 -79 16 -275 17 -2715
18 -1447 1 -2648 0 -2670 -2z m4765 -5953 l0 -460 -1080 0 -1080 0 0 360 0
360 -680 0 -680 0 0 -360 0 -360 -58 0 c-72 0 -161 23 -224 57 -57 31 -138
113 -167 171 -70 137 -68 339 6 474 31 58 113 138 171 167 102 52 12 50 1970
50 l1822 1 0 -460z"/>
</g>
</svg>
